<?xml version="1.0" encoding="UTF-8" standalone="no"?>
<!-- Created with Inkscape (http://www.inkscape.org/) -->

<svg
   version="1.1"
   id="svg1"
   width="235.0034"
   height="315.11331"
   viewBox="0 0 235.0034 315.11331"
   xmlns="http://www.w3.org/2000/svg"
   xmlns:svg="http://www.w3.org/2000/svg">
  <defs
     id="defs1" />
  <g
     id="g1"
     transform="translate(-15.164972,-13.776665)">
    <path
       id="path1"
       d="m 99.89457,105.71653 c 36.65893,0 66.56027,29.9 66.56027,66.56 0,36.65866 -29.90134,66.55933 -66.56027,66.55933 -14.145733,0 -27.282266,-4.45533 -38.084799,-12.03027 v -32.7744 c 7.580133,13.20134 21.822933,22.12747 38.084799,22.12747 24.16933,0 43.88293,-19.71413 43.88293,-43.88213 0,-24.16934 -19.7136,-43.88267 -43.88293,-43.88267 -24.169199,0 -43.882799,19.71333 -43.882799,43.88267 l -0.08387,4.42 0.306266,62.64813 H 32.291505 l 0.559867,-62.70147 c 0.0188,-2.10133 0.105733,-3.62133 0.105733,-4.36666 0,-36.66 30.278133,-66.56 66.937465,-66.56"
       style="fill:#ffffff;fill-opacity:1;fill-rule:nonzero;stroke:none;stroke-width:0.133333" />
    <path
       id="path3"
       d="m 146.49084,247.75559 c -9.18267,0 -16.67174,7.4896 -16.67174,16.67187 0,9.18227 7.48907,16.67186 16.67174,16.67186 3.54266,0 6.83333,-1.11613 9.53866,-3.01346 v -8.20947 c -1.89866,3.3068 -5.46533,5.5428 -9.53866,5.5428 -6.05467,0 -10.992,-4.93813 -10.992,-10.99173 0,-6.0536 4.93733,-10.9912 10.992,-10.9912 6.05333,0 10.99066,4.9376 10.99066,10.9912 l 0.0213,1.10733 -0.076,15.6916 h 5.99733 l -0.14133,-15.7052 c -0.004,-0.526 -0.0253,-0.90733 -0.0253,-1.09373 0,-9.18227 -7.58533,-16.67187 -16.76666,-16.67187"
       style="fill:#ffffff;fill-opacity:1;fill-rule:nonzero;stroke:none;stroke-width:0.133333" />
    <path
       id="path4"
       d="m 182.9895,281.22639 c 9.18133,0 16.67067,-7.48906 16.67067,-16.67133 0,-9.18227 -7.48934,-16.67187 -16.67067,-16.67187 -3.544,0 -6.83467,1.11614 -9.54,3.0136 v 8.2088 c 1.89867,-3.3068 5.46533,-5.54213 9.54,-5.54213 6.05333,0 10.99067,4.93747 10.99067,10.9916 0,6.0536 -4.93734,10.9912 -10.99067,10.9912 -6.05467,0 -10.992,-4.9376 -10.992,-10.9912 l -0.0213,-1.10733 0.076,-27.40827 h -5.996 l 0.14,27.42133 c 0.003,0.52654 0.0267,0.90734 0.0267,1.09427 0,9.18227 7.58266,16.67133 16.76666,16.67133"
       style="fill:#ffffff;fill-opacity:1;fill-rule:nonzero;stroke:none;stroke-width:0.133333" />
    <path
       id="path5"
       d="m 165.2735,64.625861 c 8.696,0 16.60533,3.564 22.348,9.314666 5.72667,5.732 9.27733,13.637333 9.27733,22.338666 0,8.700007 -3.55066,16.605337 -9.27733,22.337337 -5.74267,5.75067 -13.652,9.31467 -22.348,9.31467 -8.696,0 -16.60533,-3.564 -22.348,-9.31467 -5.72666,-5.732 -9.27733,-13.63733 -9.27733,-22.337337 0,-8.701333 3.55067,-16.606666 9.27733,-22.338666 5.74267,-5.750666 13.652,-9.314666 22.348,-9.314666 z m 0,15.251999 c -4.52266,0 -8.61333,1.833334 -11.564,4.788 -2.968,2.970667 -4.808,7.08 -4.808,11.613333 0,4.531997 1.84,8.641337 4.808,11.612007 2.95067,2.956 7.04134,4.78666 11.564,4.78666 4.52134,0 8.61334,-1.83066 11.564,-4.78666 2.968,-2.97067 4.808,-7.08001 4.808,-11.612007 0,-4.533333 -1.84,-8.642666 -4.808,-11.613333 -2.95066,-2.954666 -7.04266,-4.788 -11.564,-4.788"
       style="fill:#ffffff;fill-opacity:1;fill-rule:nonzero;stroke:none;stroke-width:0.133333" />
    <path
       id="path6"
       d="m 167.34284,93.043193 c 0,0 17.84933,-4.256 27.32399,-3.672 9.47467,0.584 11.58934,0.584 11.58934,0.584 0,0 3.12933,0.166667 0.33866,1.918667 -2.792,1.752 -4.90666,3.004 -4.90666,3.004 0,0 -1.1,0.417333 0.16933,1.918667 1.268,1.501333 2.96,4.505333 2.96,4.505333 0,0 2.03067,1.92 -1.1,1.836 -10.88667,-0.29067 -24.69067,-4.141333 -34.69466,-9.018667 -1.01734,-0.496 -1.68,-1.076 -1.68,-1.076"
       style="fill:#ffffff;fill-opacity:1;fill-rule:evenodd;stroke:none;stroke-width:0.133333" />
    <path
       id="path7"
       d="m 218.03883,66.500527 c 0,0 -0.176,2.289334 -0.088,3.876 0.088,1.584 -1.14533,9.245333 -7.39733,11.006667 -6.252,1.761333 -9.59867,0.616 -10.744,-3.697334 -1.144,-4.315999 4.844,-7.926666 4.844,-7.926666 0,0 3.52267,-3.434667 9.77467,-2.289333 1.58533,1.232 2.28933,-0.528 2.28933,-0.528 l 0.264,-29.061333 c 0,0 0.26533,-3.082667 -2.46533,-1.057333 -2.72934,2.026666 -8.18934,5.9 -9.42267,12.065333 -1.23333,6.164 1.58533,12.505333 1.58533,12.505333 0,0 1.49734,2.641333 -0.44,2.025333 -1.32133,-1.409333 -3.61066,-10.216 -3.25866,-11.184 0.352,-0.969333 -0.44,-6.077333 5.988,-14.354666 2.712,-3.492 4.15466,-4.962666 5.04266,-5.793333 1.70534,-1.596 2.424,-3.236 3.144,-5.416 0.60934,-1.842667 0.18,-1.736 0.18,-1.736 0,0 1.32134,-2.289333 1.232,0.793333 -0.088,3.081334 -0.528,40.771999 -0.528,40.771999"
       style="fill:#ffffff;fill-opacity:1;fill-rule:evenodd;stroke:none;stroke-width:0.133333" />
    <path
       id="path8"
       d="m 249.63617,56.160528 c 0,0 -0.176,2.289333 -0.088,3.874666 0.088,1.585333 -1.14534,9.246667 -7.39734,11.008 -6.25333,1.761333 -9.6,0.616 -10.744,-3.698667 -1.14533,-4.316 4.844,-7.925333 4.844,-7.925333 0,0 3.52134,-3.434666 9.77467,-2.290666 1.58533,1.233333 2.28933,-0.528 2.28933,-0.528 l 0.264,-29.06 c 0,0 0.264,-3.082666 -2.46533,-1.057333 -2.73067,2.025333 -8.19067,5.9 -9.42267,12.064 -1.23333,6.164 1.584,12.505333 1.584,12.505333 0,0 1.49734,2.642666 -0.44,2.025333 -1.32,-1.409333 -3.60933,-10.214666 -3.25733,-11.184 0.352,-0.968 -0.44133,-6.076 5.988,-14.353333 2.712,-3.493333 4.15467,-4.964 5.04133,-5.793333 1.70667,-1.597333 2.424,-3.236 3.14534,-5.417333 0.60933,-1.842666 0.17866,-1.734667 0.17866,-1.734667 0,0 1.32134,-2.290666 1.23334,0.792 -0.088,3.081334 -0.528,40.773333 -0.528,40.773333"
       style="fill:#ffffff;fill-opacity:1;fill-rule:evenodd;stroke:none;stroke-width:0.133333" />
    <path
       id="path9"
       d="m 219.07617,247.75559 c -9.18267,0 -16.67067,7.4896 -16.67067,16.67187 0,9.18227 7.488,16.67186 16.67067,16.67186 2.288,0 4.46933,-0.4672 6.45733,-1.30733 v -6.48066 c -1.816,1.324 -4.04667,2.10786 -6.45733,2.10786 -6.05334,0 -10.99067,-4.93813 -10.99067,-10.99173 0,-6.0536 4.93733,-10.9912 10.99067,-10.9912 2.41066,0 4.64133,0.7824 6.45733,2.10627 v -6.488 c -1.99333,-0.83587 -4.17467,-1.29894 -6.45733,-1.29894"
       style="fill:#ffffff;fill-opacity:1;fill-rule:nonzero;stroke:none;stroke-width:0.133333" />
    <path
       id="path25"
       d="m 116.72217,272.00559 -9.28013,1.98907 15.62293,4.7948 c 0.6104,0.18693 1.22133,0.3744 0.8468,1.59213 -0.37387,1.21773 -0.9848,1.03027 -1.5952,0.8432 l -14.63027,-4.49 5.38694,4.72707 c 0.48026,0.42133 0.9604,0.84266 0.12186,1.80053 -0.83853,0.95827 -1.31813,0.53693 -1.7984,0.1156 l -9.17346,-8.05 -9.868136,5.58587 c -0.555734,0.31466 -1.112,0.6292 -1.740667,-0.47853 -0.6292,-1.10787 -0.07293,-1.4224 0.4828,-1.73707 l 9.542663,-5.40147 -0.2708,-0.348 c -0.0776,-0.1 -0.2672,-0.6364 -0.2692,-0.76346 l -0.40213,-21.51467 c -0.012,-0.638 -0.024,-1.27707 1.2536,-1.2968 1.2776,-0.0199 1.2896,0.61867 1.30107,1.2572 l 0.39426,21.0876 0.4636,0.5952 13.0828,-2.8036 c 0.6244,-0.13387 1.24894,-0.26773 1.51347,0.98027 0.26467,1.24733 -0.35987,1.3812 -0.9844,1.51506"
       style="fill:#ffffff;fill-opacity:1;fill-rule:nonzero;stroke:none;stroke-width:0.133333" />
    <path
       id="path26"
       d="m 98.022704,273.21186 -5.0312,1.07867 9.386396,4.99573 c 0.5636,0.3 1.1276,0.60053 0.5292,1.72346 -0.59893,1.12294 -1.16293,0.8224 -1.72653,0.5224 l -11.544266,-6.14479 c -0.175467,0.009 -0.3224,-0.0416 -0.452134,-0.12814 l -9.566666,4.6896 c -0.573333,0.2808 -1.1468,0.562 -1.705733,-0.58586 -0.5588,-1.148 0.01413,-1.4292 0.5876,-1.71 l 9.019733,-4.42187 -0.2192,-0.28227 c -0.07773,-0.0995 -0.2672,-0.63226 -0.269867,-0.75826 l -0.402133,-19.1016 c -0.01293,-0.63854 -0.02653,-1.2776 1.251067,-1.30214 1.277066,-0.0249 1.290666,0.6136 1.304266,1.25214 l 0.3932,18.67813 0.464,0.5968 7.4532,-1.5968 c 0.6244,-0.13387 1.2484,-0.26773 1.512933,0.97973 0.264667,1.24787 -0.359333,1.38174 -0.983866,1.51507"
       style="fill:#ffffff;fill-opacity:1;fill-rule:nonzero;stroke:none;stroke-width:0.133333" />
    <path
       id="path27"
       d="M 30.092572,325.20146 H 230.04417 c 6.17066,0 11.22,-5.0224 11.22,-11.1604 V 78.428527 h 3.708 V 314.04106 c 0,8.16706 -6.71734,14.84893 -14.928,14.84893 H 30.092572 c -8.2104,0 -14.9276,-6.68187 -14.9276,-14.84893 V 48.593861 c 0,-8.166666 6.7172,-14.849333 14.9276,-14.849333 H 190.0535 v 3.689333 H 30.092572 c -6.1704,0 -11.219333,5.022667 -11.219333,11.16 V 314.04106 c 0,6.138 5.048933,11.1604 11.219333,11.1604"
       style="fill:#ffffff;fill-opacity:1;fill-rule:nonzero;stroke:none;stroke-width:0.133333" />
  </g>
</svg>
